<svg width="196" height="121" viewBox="0 0 196 121" fill="none" xmlns="http://www.w3.org/2000/svg">
<path d="M69.0589 120.941C67.3577 120.886 67.1349 120.866 64.968 120.566C63.1175 120.311 62.5102 120.207 62.2106 120.093C62.0862 120.046 61.8339 119.99 61.6498 119.968C61.4658 119.947 61.1896 119.879 61.0361 119.816C60.8826 119.754 60.5825 119.684 60.3693 119.661C60.1561 119.637 59.9017 119.581 59.804 119.535C59.7062 119.489 59.4786 119.425 59.2982 119.393C59.1178 119.362 58.8989 119.284 58.8118 119.221C58.7247 119.157 58.5397 119.088 58.4006 119.066C58.2616 119.044 58.1154 118.99 58.0758 118.946C58.0362 118.902 57.8843 118.847 57.7384 118.824C57.5925 118.801 57.3427 118.718 57.1833 118.64C57.024 118.562 56.839 118.498 56.7721 118.498C56.7053 118.498 56.4697 118.428 56.2487 118.343C55.8777 118.201 55.483 118.028 53.6124 117.19C53.2362 117.021 52.9135 116.883 52.8951 116.883C52.8768 116.883 52.6032 116.735 52.287 116.555C51.9708 116.374 51.5813 116.157 51.4214 116.073C49.9769 115.309 48.8838 114.622 47.3616 113.523C46.2226 112.7 45.8974 112.461 45.8329 112.398C45.7974 112.364 45.6689 112.249 45.5475 112.143C45.426 112.037 45.2806 111.901 45.2244 111.84C45.1682 111.779 44.9987 111.679 44.8477 111.618C44.6967 111.557 44.5731 111.474 44.5731 111.434C44.5731 111.393 44.3187 111.116 44.0078 110.818C43.1165 109.962 41.9063 108.753 41.7637 108.575C41.6921 108.486 41.5267 108.308 41.3961 108.179C41.1836 107.97 40.9101 107.642 40.5028 107.108C40.3839 106.952 39.9152 106.371 39.3263 105.649C39.2299 105.531 39.1023 105.353 39.0427 105.255C38.9831 105.156 38.9111 105.061 38.8828 105.044C38.8545 105.027 38.7737 104.889 38.7034 104.737C38.633 104.585 38.5446 104.443 38.507 104.422C38.4694 104.4 38.3341 104.216 38.2062 104.012C38.0784 103.807 37.8179 103.398 37.6274 103.102C37.4368 102.806 37.1453 102.309 36.9796 101.996C36.5119 101.115 36.189 100.492 36.0814 100.263C36.0273 100.147 35.9557 100.013 35.9223 99.9636C35.7848 99.761 35.4636 99.0672 35.4636 98.973C35.4636 98.9173 35.4079 98.7878 35.3398 98.6853C35.2717 98.5827 35.1945 98.3915 35.1682 98.2602C35.1419 98.129 35.0522 97.903 34.969 97.7581C34.8857 97.6131 34.8176 97.4511 34.8176 97.398C34.8176 97.3448 34.7633 97.2076 34.697 97.093C34.6306 96.9784 34.5551 96.7905 34.5291 96.6754C34.5031 96.5603 34.442 96.4079 34.3934 96.3367C34.3447 96.2655 34.2738 96.0267 34.2357 95.806C34.1976 95.5854 34.1227 95.3266 34.0693 95.231C34.0159 95.1354 33.9477 94.8899 33.9177 94.6855C33.8877 94.481 33.831 94.2331 33.7915 94.1344C33.6278 93.7247 33.3299 92.4703 33.2651 91.9177C33.2268 91.5914 33.1258 90.9343 33.0406 90.4575C32.9554 89.9807 32.8677 89.2409 32.8458 88.8134C32.8238 88.3859 32.7645 87.525 32.7139 86.9002C32.6525 86.1421 32.6217 84.797 32.6214 82.8564C32.6212 81.2571 32.5856 79.2662 32.5425 78.4322C32.4993 77.5982 32.4633 76.7948 32.4625 76.6468C32.4606 76.3122 32.6033 75.9772 32.7373 76.0013C32.8286 76.0178 32.8898 76.0962 33.2354 76.6396C33.7665 77.4747 34.7258 78.4711 35.2666 78.7493C35.4157 78.826 35.6458 78.9426 35.7778 79.0084C35.9099 79.0741 36.0887 79.175 36.1751 79.2326C36.2615 79.2901 36.4119 79.3372 36.5092 79.3372C36.6065 79.3372 36.7388 79.3895 36.8032 79.4535C36.8676 79.5174 37.0595 79.5986 37.2297 79.6339C37.3999 79.6693 37.6028 79.7365 37.6805 79.7833C37.7582 79.8302 37.9962 79.8949 38.2094 79.9271C38.4226 79.9594 38.7051 80.0282 38.8372 80.08C38.9693 80.1318 39.1728 80.1744 39.2895 80.1746C39.4061 80.1746 39.8358 80.2288 40.2445 80.2946C41.0707 80.4278 42.7803 80.5028 46.3498 80.5624C47.5579 80.5826 48.6917 80.6209 48.8694 80.6476C50.2057 80.8479 50.5582 80.9104 50.6216 80.9584C50.6615 80.9885 50.85 81.056 51.0406 81.1083C51.2311 81.1607 51.4656 81.2612 51.5617 81.3316C51.6577 81.402 51.8095 81.5071 51.899 81.565C52.1166 81.7061 52.4577 82.1967 52.7192 82.745C52.925 83.1766 52.9331 83.2227 52.9348 83.9707C52.9364 84.7215 52.9295 84.7616 52.7308 85.1515C52.6176 85.3734 52.5002 85.555 52.4697 85.555C52.4393 85.555 52.3657 85.6495 52.3061 85.7651C52.2466 85.8806 51.9893 86.1768 51.7344 86.4234C51.1293 87.0087 50.6112 87.3383 49.4832 87.8554C48.7059 88.2117 48.474 88.3052 48.3681 88.3052C48.3133 88.3052 48.113 88.3722 47.9229 88.4541C47.7328 88.536 47.4901 88.6038 47.3835 88.6049C47.2769 88.6059 47.0673 88.6582 46.9178 88.721C46.7682 88.7838 46.5066 88.8528 46.3363 88.8743C46.166 88.8958 45.8232 88.9625 45.5745 89.0224C45.3258 89.0824 44.9333 89.1486 44.7023 89.1695C44.4713 89.1904 43.8754 89.2629 43.3779 89.3306C42.6007 89.4364 42.2825 89.4488 41.1167 89.4192C40.2656 89.3975 39.4387 89.3395 38.8981 89.2635C38.4241 89.1968 37.9065 89.1422 37.748 89.1422C37.4838 89.1422 37.4526 89.1584 37.3729 89.3365C37.2975 89.5052 37.1625 90.1931 37.1529 90.4575C37.0444 93.4452 37.0833 95.232 37.2828 96.4237C37.3798 97.0029 37.46 97.0593 38.2864 97.1296C39.2475 97.2114 42.3747 97.1965 43.0549 97.107C43.3747 97.0649 44.0288 97.0064 44.5085 96.977C44.9882 96.9476 45.4824 96.8847 45.6068 96.8372C45.7312 96.7896 46.0364 96.7327 46.2852 96.7106C46.5339 96.6886 46.9845 96.6188 47.2866 96.5554C49.2019 96.1538 50.22 95.9055 51.1306 95.6178C51.6992 95.4382 52.3242 95.2462 52.5197 95.1911C52.7152 95.136 52.9469 95.0439 53.0348 94.9864C53.1226 94.9288 53.2447 94.8818 53.306 94.8818C53.3673 94.8818 53.4959 94.8145 53.5918 94.7323C53.6876 94.6501 53.836 94.5828 53.9215 94.5828C54.007 94.5828 54.1844 94.5291 54.3158 94.4634C54.4472 94.3977 54.6565 94.303 54.7809 94.2528C54.9762 94.1741 55.3946 93.9525 56.2508 93.4745C56.3664 93.41 56.4768 93.3118 56.4962 93.2563C56.5156 93.2007 56.6391 93.1232 56.7706 93.0839C57.1519 92.97 58.4145 92.0096 58.4963 91.7712C58.5163 91.7129 58.6112 91.6469 58.7073 91.6246C58.8715 91.5865 59.2984 91.2514 59.6992 90.8462C60.1804 90.3596 60.5549 89.9289 60.6609 89.7401C60.7256 89.625 60.8365 89.4985 60.9073 89.459C60.9781 89.4194 61.0555 89.3051 61.0793 89.2049C61.1031 89.1047 61.1464 89.0227 61.1756 89.0227C61.2297 89.0227 61.424 88.7532 61.6598 88.3513C62.0029 87.7665 62.3398 87.1175 62.3398 87.0413C62.3398 86.9948 62.3799 86.9037 62.4289 86.8388C62.478 86.7739 62.5651 86.5594 62.6227 86.3621C62.6802 86.1648 62.7676 85.8682 62.8168 85.703C63.3156 84.0304 63.271 81.201 62.7242 79.8282C62.6549 79.6543 62.5982 79.4387 62.5982 79.349C62.5982 79.2594 62.543 79.0905 62.4754 78.9739C62.4079 78.8573 62.3228 78.6694 62.2863 78.5563C62.1933 78.2677 61.9344 77.7087 61.8148 77.5378C61.7595 77.4588 61.6958 77.3251 61.6734 77.2407C61.651 77.1564 61.5737 77.0245 61.5017 76.9476C61.4297 76.8708 61.3707 76.7737 61.3707 76.7319C61.3707 76.6902 61.298 76.576 61.2092 76.4784C61.1204 76.3807 61.0477 76.2762 61.0477 76.2462C61.0477 76.1475 60.2755 75.2444 60.0858 75.1212C59.9836 75.0549 59.8022 74.8821 59.6825 74.7372C59.1214 74.058 57.2739 73.0566 55.9761 72.7283C54.5712 72.3728 53.7514 72.224 52.7135 72.1361C51.1277 72.0017 50.7012 71.9818 48.0295 71.9178C46.6437 71.8845 45.3354 71.8343 45.1222 71.806C44.7494 71.7567 43.7873 71.6145 43.2487 71.5292C43.1065 71.5067 42.9109 71.4513 42.814 71.4062C42.5485 71.2825 41.8888 70.6285 41.8102 70.4111C41.7721 70.3058 41.6648 70.0314 41.5717 69.8012C41.4745 69.5609 41.3863 69.1914 41.3644 68.9332C41.3264 68.4837 41.3738 68.299 41.6828 67.6949C41.787 67.491 42.3118 66.9391 42.6154 66.714C43.1863 66.2908 44.4093 65.6884 44.9607 65.5588C45.1562 65.5128 45.4469 65.4352 45.6068 65.3864C46.0401 65.2539 47.3161 64.9992 47.868 64.935C49.4518 64.7509 49.7148 64.7383 51.3891 64.7673C52.3485 64.7839 53.3224 64.8267 53.5534 64.8625C53.7843 64.8983 54.1538 64.945 54.3743 64.9664C54.7539 65.0031 54.779 64.9976 54.844 64.8623C54.9506 64.64 55.1034 63.6135 55.1767 62.6268C55.2141 62.1234 55.2268 61.0088 55.2057 60.0859C55.1635 58.2427 55.0776 57.6429 54.822 57.4064L54.6682 57.264L52.3826 57.269C50.2476 57.2736 49.6554 57.3002 48.2557 57.4538C47.9536 57.487 47.5602 57.5143 47.3814 57.5146C47.2026 57.515 46.8973 57.5563 46.703 57.6067C46.5087 57.6571 46.0052 57.7383 45.5842 57.7872C45.1631 57.836 44.7649 57.9026 44.6993 57.9351C44.6337 57.9676 44.357 58.0336 44.0845 58.0819C43.812 58.1301 43.556 58.1949 43.5157 58.2257C43.4754 58.2566 43.2681 58.3113 43.0549 58.3474C42.49 58.4429 40.8979 58.9036 40.2445 59.1606C40.049 59.2374 39.8019 59.3193 39.6953 59.3424C39.5887 59.3656 39.4579 59.4168 39.4046 59.4563C39.3513 59.4958 39.2059 59.5646 39.0816 59.6092C38.8017 59.7097 37.663 60.2541 37.531 60.3506C37.4777 60.3896 37.3531 60.4535 37.2541 60.4925C37.1552 60.5316 36.9165 60.6713 36.7239 60.803C36.5312 60.9347 36.3474 61.0425 36.3153 61.0425C36.2832 61.0425 36.0405 61.2106 35.7759 61.4161C34.5244 62.388 33.4963 63.3732 33.2334 63.8524C33.0663 64.1572 32.8122 64.4503 32.7152 64.4503C32.6197 64.4503 32.4986 64.1505 32.4858 63.8823C32.4811 63.7837 32.5093 62.8959 32.5485 61.9094C32.5938 60.7673 32.6199 55.6091 32.6203 47.71C32.6208 37.48 32.6373 35.1051 32.714 34.1683C32.7652 33.5436 32.8257 32.6692 32.8484 32.2253C32.8711 31.7814 32.9589 31.0415 33.0435 30.5811C33.1282 30.1208 33.2291 29.4679 33.2679 29.1304C33.3066 28.7929 33.3952 28.322 33.4647 28.0841C33.5342 27.8462 33.6222 27.5171 33.6602 27.3526C33.6982 27.1882 33.7689 26.9461 33.8172 26.8146C33.8656 26.683 33.9243 26.4413 33.9477 26.2773C33.9711 26.1133 34.0298 25.9082 34.0783 25.8214C34.1268 25.7347 34.1969 25.4873 34.2341 25.2716C34.2714 25.0559 34.3437 24.8036 34.3948 24.711C34.4459 24.6184 34.5301 24.4216 34.582 24.2736C34.7885 23.6841 34.9028 23.3974 35.0111 23.1975C35.0734 23.0824 35.1457 22.8941 35.1718 22.779C35.1978 22.6639 35.2741 22.4858 35.3414 22.3833C35.4086 22.2808 35.4636 22.148 35.4636 22.0883C35.4636 21.9586 35.6389 21.5966 36.5186 19.9092C36.75 19.4653 37.0143 18.9541 37.1059 18.7733C37.1975 18.5924 37.3596 18.3234 37.4662 18.1754C37.5727 18.0274 37.7068 17.8122 37.7642 17.6971C37.8216 17.582 37.8895 17.4744 37.9152 17.4579C37.9808 17.4158 38.5702 16.5175 38.9779 15.8384C39.1064 15.6243 39.1423 15.5783 39.6824 14.936C39.8672 14.7162 40.091 14.4394 40.1799 14.3207C40.6302 13.7192 41.2762 12.9323 41.4571 12.7649C41.5479 12.6808 41.6834 12.5354 41.758 12.4417C41.9045 12.2581 43.0928 11.0691 44.0078 10.1909C44.3187 9.89252 44.5731 9.61543 44.5731 9.5752C44.5731 9.53498 44.6967 9.45206 44.8477 9.39095C44.9987 9.32983 45.1682 9.2299 45.2244 9.16887C45.2806 9.10784 45.426 8.9714 45.5475 8.86567C45.6689 8.75994 45.7974 8.64523 45.8329 8.61077C45.8974 8.54823 46.2226 8.30899 47.3616 7.48613C48.8838 6.38645 49.9769 5.69987 51.4214 4.93613C51.5813 4.85159 51.9708 4.63461 52.287 4.45396C52.6032 4.27331 52.8768 4.1255 52.8951 4.1255C52.9135 4.1255 53.2362 3.98753 53.6124 3.8189C55.483 2.98036 55.8777 2.80767 56.2487 2.66536C56.4697 2.58061 56.7053 2.51126 56.7721 2.51126C56.839 2.51126 57.024 2.44712 57.1833 2.36872C57.3427 2.29031 57.5925 2.2075 57.7384 2.18468C57.8843 2.16186 58.0362 2.10705 58.0758 2.06286C58.1154 2.01868 58.2616 1.96474 58.4006 1.94301C58.5397 1.92127 58.7247 1.85161 58.8118 1.7882C58.8989 1.7248 59.1178 1.64702 59.2982 1.61536C59.4786 1.58369 59.7062 1.52016 59.804 1.47417C59.9017 1.42818 60.1561 1.37107 60.3693 1.34726C60.5825 1.32345 60.8752 1.25435 61.0196 1.1937C61.1641 1.13304 61.4403 1.06491 61.6334 1.04229C61.8265 1.01967 62.0862 0.962681 62.2106 0.915648C62.335 0.868615 62.6548 0.791056 62.9213 0.743297C63.4376 0.650768 66.2473 0.265898 67.0561 0.176919C68.4582 0.0226642 72.3871 0.000179181 97.9701 9.99073e-07C123.894 -0.000179554 127.943 0.0239732 129.078 0.185534C129.309 0.218416 130.079 0.325769 130.79 0.424098C132.916 0.718203 133.453 0.805503 133.665 0.891577C133.754 0.927569 134.016 0.994993 134.247 1.04141C135.585 1.31045 136.756 1.61051 137.186 1.79478C137.328 1.8557 137.575 1.94511 137.735 1.99348C138.212 2.13779 138.592 2.27201 138.87 2.39514C139.015 2.45901 139.174 2.51143 139.225 2.51163C139.276 2.51183 139.405 2.55492 139.512 2.60738C139.619 2.65984 139.851 2.74313 140.029 2.79247C140.206 2.84181 140.387 2.90861 140.43 2.94091C140.532 3.0182 141.352 3.38108 141.552 3.43768C141.638 3.46205 141.752 3.51577 141.805 3.55704C141.859 3.59832 142.019 3.66631 142.161 3.70813C142.303 3.74996 142.488 3.83398 142.573 3.89485C142.658 3.95572 142.84 4.03385 142.979 4.06848C143.118 4.1031 143.413 4.2424 143.633 4.37804C144.062 4.64144 144.279 4.76821 144.842 5.08315C145.037 5.19249 145.226 5.31196 145.262 5.34865C145.297 5.38534 145.486 5.48723 145.682 5.57507C146.132 5.77725 146.775 6.16487 146.936 6.33026C147.003 6.40007 147.087 6.45719 147.123 6.45719C147.158 6.45719 147.306 6.54717 147.452 6.65714C147.598 6.76711 147.833 6.92736 147.975 7.01325C148.492 7.32522 149.346 7.96349 149.946 8.48594C150.283 8.77978 150.679 9.1094 150.824 9.21842C151.258 9.54358 151.349 9.62178 152.249 10.4487C152.723 10.8848 153.112 11.264 153.112 11.2915C153.112 11.319 153.38 11.5992 153.709 11.9143C154.576 12.7453 154.944 13.1415 155.017 13.3225C155.053 13.4103 155.181 13.5763 155.301 13.6914C155.422 13.8065 155.589 13.9948 155.673 14.1099C155.896 14.4132 156.284 14.9005 156.471 15.1096C156.56 15.2091 156.691 15.3801 156.762 15.4895C156.833 15.5989 156.923 15.7366 156.961 15.7956C157 15.8545 157.078 15.9499 157.134 16.0077C157.19 16.0655 157.256 16.1874 157.281 16.2786C157.306 16.3697 157.376 16.4774 157.436 16.5177C157.497 16.558 157.656 16.7659 157.789 16.9797C158.188 17.6208 158.29 17.7786 158.426 17.9596C158.633 18.2346 159.314 19.5052 159.314 19.6153C159.314 19.6702 159.357 19.7487 159.411 19.7896C159.464 19.8306 159.508 19.8936 159.508 19.9298C159.508 19.966 159.65 20.2654 159.824 20.5951C160.242 21.3876 160.439 21.7949 160.56 22.1213C160.801 22.7649 160.942 23.1198 161.023 23.2872C161.072 23.3858 161.143 23.5741 161.183 23.7057C161.222 23.8372 161.297 23.997 161.35 24.0609C161.403 24.1247 161.446 24.2327 161.446 24.3009C161.446 24.3691 161.503 24.5246 161.574 24.6465C161.645 24.7683 161.735 25.0639 161.775 25.3032C161.815 25.5426 161.89 25.8147 161.942 25.9078C161.994 26.001 162.064 26.2432 162.097 26.4459C162.131 26.6487 162.199 26.9087 162.249 27.0238C162.384 27.3386 162.714 28.9205 162.834 29.8338C162.892 30.2777 162.969 30.7351 163.004 30.8502C163.039 30.9653 163.109 31.6513 163.159 32.3747C163.208 33.0982 163.278 34.0802 163.313 34.5569C163.348 35.0337 163.393 37.1188 163.413 39.1904C163.468 44.8054 163.54 47.169 163.679 47.9048C163.71 48.0679 163.691 48.1723 163.61 48.286C163.533 48.3947 163.521 48.455 163.571 48.4835C163.611 48.5061 163.637 48.5931 163.629 48.6768L163.616 48.8291L163.37 48.7272C163.235 48.6712 163.105 48.6078 163.082 48.5863C163.059 48.5648 163.035 48.3783 163.03 48.1717C163.024 47.8963 162.985 47.7489 162.885 47.6186C162.792 47.4961 162.736 47.3026 162.706 46.9952C162.682 46.75 162.624 46.4801 162.577 46.3953C162.529 46.3105 162.472 46.1344 162.449 46.004C162.426 45.8736 162.352 45.5652 162.284 45.3186C162.162 44.8795 161.915 43.8795 161.737 43.1065C161.688 42.8927 161.605 42.6237 161.554 42.5086C161.502 42.3935 161.439 42.1514 161.413 41.9705C161.387 41.7896 161.327 41.5475 161.28 41.4324C161.232 41.3173 161.164 41.0691 161.128 40.8809C160.564 39.0546 160.091 37.2297 159.575 35.4239C159.471 35.0621 159.252 34.255 159.087 33.6303C158.922 33.0055 158.746 32.3732 158.696 32.2253C158.646 32.0773 158.578 31.7814 158.545 31.5676C158.477 31.1305 158.264 30.6412 158.119 30.5896C158.024 30.5558 157.037 30.8134 156.6 30.9863C156.476 31.0355 156.127 31.1345 155.825 31.2064C155.523 31.2782 154.912 31.4255 154.468 31.5338C154.024 31.6421 153.515 31.7637 153.338 31.8042C151.657 32.483 149.637 32.4048 148.026 33.143C147.924 33.1919 147.653 33.2633 147.423 33.3018C147.194 33.3402 146.973 33.3973 146.932 33.4286C146.891 33.4599 146.673 33.5118 146.447 33.5439C146.222 33.576 145.935 33.6405 145.811 33.6873C145.687 33.734 145.28 33.8283 144.907 33.8967C143.827 34.0945 143.28 34.2419 143.138 34.373C143.011 34.491 143.009 34.5196 143.085 35.2881C143.128 35.7245 143.205 36.209 143.256 36.3649C143.308 36.5208 143.369 36.8167 143.394 37.0226C143.54 37.4876 143.632 38.2306 143.857 38.6505C143.911 38.7482 143.992 38.9769 144.037 39.1587C144.138 39.5694 144.296 39.9949 144.495 40.3921C144.579 40.5598 144.648 40.7378 144.648 40.7876C144.648 40.8375 144.707 40.9469 144.778 41.0309C144.849 41.1149 144.926 41.2695 144.949 41.3745C144.981 41.5209 145.045 41.5867 145.223 41.6565C145.435 41.7393 145.482 41.7382 145.746 41.6448C145.906 41.5883 146.226 41.4919 146.457 41.4307C146.688 41.3695 146.964 41.2802 147.071 41.2321C147.597 41.1413 148.103 40.8761 148.623 40.803C148.8 40.7794 149.093 40.6961 149.274 40.618C149.637 40.4611 150.084 40.4314 150.196 40.5566C150.236 40.601 150.287 40.7692 150.31 40.9303C150.333 41.0914 150.379 41.2552 150.412 41.2944C150.445 41.3336 150.501 41.5611 150.537 41.7999C150.573 42.0388 150.64 42.3027 150.686 42.3863C150.733 42.47 150.79 42.6595 150.815 42.8075C150.839 42.9555 150.914 43.238 150.982 43.4353C151.05 43.6326 151.151 43.9689 151.207 44.1826C151.459 45.1416 151.559 45.4841 151.651 45.7072C151.705 45.8387 151.75 46.0076 151.752 46.0824C151.754 46.1573 151.825 46.4263 151.912 46.6803C151.998 46.9343 152.147 47.4245 152.243 47.7698C152.339 48.1151 152.484 48.6128 152.565 48.8759C152.647 49.1389 152.748 49.5138 152.79 49.7089C152.832 49.9039 152.909 50.173 152.961 50.3067C153.012 50.4405 153.094 50.7248 153.143 50.9385C153.25 51.409 153.391 51.8906 153.6 52.5063C153.687 52.7603 153.758 53.0293 153.758 53.1042C153.758 53.179 153.83 53.4286 153.918 53.6588C154.006 53.889 154.079 54.1446 154.08 54.2268C154.081 54.309 154.127 54.457 154.183 54.5556C154.465 55.229 154.595 56.0581 154.824 56.7137C154.912 56.9655 154.985 57.2226 154.985 57.285C154.985 57.3474 155.044 57.5525 155.116 57.7407C155.188 57.929 155.29 58.2579 155.342 58.4716C155.394 58.6854 155.512 59.1158 155.604 59.4282C155.696 59.7406 155.827 60.2166 155.894 60.4859C155.962 60.7552 156.059 61.0915 156.109 61.2332C156.304 62.155 156.806 63.2624 156.959 64.1937C156.984 64.3513 157.055 64.5878 157.118 64.7194C157.18 64.8509 157.267 65.1535 157.309 65.3917C157.352 65.63 157.411 65.8386 157.44 65.8553C157.469 65.872 157.528 66.0806 157.571 66.3189C157.614 66.5571 157.687 66.8385 157.734 66.9441C157.781 67.0497 157.838 67.265 157.861 67.4224C157.924 67.8531 158.009 68.0656 158.177 68.212C158.321 68.3364 158.354 68.3403 158.741 68.2778C159.719 68.12 161.439 67.7944 161.736 67.711C161.914 67.6611 162.133 67.62 162.224 67.6197C162.314 67.6191 162.503 67.5645 162.643 67.498C162.987 67.3354 163.382 67.2768 163.39 67.3872C163.432 67.9808 163.361 85.8619 163.313 86.4817C163.278 86.9421 163.208 87.9106 163.158 88.634C163.107 89.3575 163.037 90.057 163.001 90.1885C162.966 90.32 162.891 90.7774 162.835 91.2049C162.717 92.1031 162.382 93.6875 162.251 93.9668C162.202 94.072 162.142 94.3006 162.118 94.475C162.094 94.6494 162.02 94.9193 161.955 95.0749C161.89 95.2304 161.806 95.5346 161.768 95.7508C161.731 95.9671 161.643 96.243 161.573 96.364C161.503 96.4849 161.446 96.6389 161.446 96.706C161.446 96.7732 161.405 96.8815 161.356 96.9468C161.306 97.0122 161.222 97.2027 161.168 97.3704C161.114 97.538 161.039 97.726 161.001 97.7881C160.935 97.8947 160.782 98.2795 160.564 98.8875C160.459 99.1822 160.4 99.3047 159.868 100.327C159.67 100.707 159.508 101.047 159.508 101.082C159.508 101.116 159.467 101.176 159.417 101.214C159.367 101.253 159.309 101.35 159.287 101.43C159.248 101.572 158.881 102.285 158.626 102.714C158.391 103.109 158.125 103.521 158.086 103.551C158.064 103.567 157.934 103.769 157.797 103.999C157.659 104.229 157.496 104.451 157.434 104.493C157.372 104.534 157.302 104.648 157.279 104.746C157.255 104.844 157.209 104.94 157.176 104.959C157.142 104.978 157 105.16 156.861 105.364C156.607 105.731 156.241 106.199 155.841 106.665C155.726 106.8 155.631 106.928 155.631 106.949C155.631 106.971 155.508 107.11 155.357 107.258C155.206 107.406 155.053 107.599 155.018 107.686C154.944 107.868 154.569 108.273 153.709 109.097C153.38 109.412 153.112 109.691 153.112 109.718C153.112 109.745 152.723 110.124 152.249 110.56C151.349 111.387 151.258 111.465 150.824 111.79C150.679 111.899 150.283 112.229 149.946 112.523C149.346 113.045 148.492 113.684 147.975 113.996C147.833 114.081 147.598 114.242 147.452 114.352C147.306 114.462 147.158 114.552 147.123 114.552C147.087 114.552 147.003 114.609 146.936 114.679C146.827 114.792 146.508 115.009 146.205 115.177C146.148 115.209 146.029 115.278 145.94 115.331C145.851 115.384 145.68 115.459 145.559 115.498C145.437 115.537 145.298 115.622 145.248 115.688C145.198 115.753 145.134 115.807 145.105 115.807C145.043 115.807 144.453 116.132 144.153 116.33C144.041 116.404 143.933 116.465 143.912 116.465C143.891 116.465 143.707 116.572 143.502 116.704C143.297 116.835 143.071 116.943 143 116.943C142.928 116.943 142.766 117.008 142.641 117.087C142.516 117.165 142.29 117.264 142.141 117.305C141.991 117.347 141.836 117.417 141.797 117.461C141.757 117.505 141.698 117.541 141.666 117.541C141.578 117.541 140.561 117.97 140.449 118.054C140.395 118.094 140.206 118.167 140.029 118.217C139.851 118.266 139.619 118.349 139.512 118.401C139.405 118.454 139.276 118.497 139.225 118.497C139.174 118.497 139.015 118.55 138.87 118.614C138.592 118.737 138.212 118.871 137.735 119.015C137.575 119.064 137.328 119.156 137.186 119.221C137.044 119.286 136.768 119.38 136.572 119.431C136.222 119.522 136.069 119.558 134.796 119.851C134.44 119.933 133.961 120.051 133.73 120.115C133.275 120.24 132.3 120.399 130.822 120.589C130.307 120.655 129.638 120.749 129.336 120.798C129.017 120.849 127.95 120.912 126.785 120.948C124.373 121.021 71.3531 121.015 69.0589 120.941ZM74.0057 89.3554C74.1809 89.3082 74.6518 89.2282 75.0521 89.1777C75.4523 89.1271 75.8303 89.0612 75.8919 89.0313C75.9536 89.0014 76.2221 88.945 76.4886 88.906C76.7551 88.867 77.133 88.7929 77.3285 88.7414C77.5239 88.6899 77.8582 88.6132 78.0714 88.5709C78.4515 88.4955 78.8156 88.3958 79.3959 88.2081C79.5558 88.1563 79.8743 88.075 80.1038 88.0273C80.3332 87.9796 80.5539 87.9152 80.5942 87.8843C80.6627 87.8317 81.2024 87.6506 81.9428 87.4318C82.1177 87.3802 82.3212 87.3021 82.395 87.2584C82.4689 87.2148 82.6515 87.1492 82.8009 87.1128C83.1054 87.0385 83.466 86.7874 83.466 86.6496C83.466 86.5999 83.3809 86.3239 83.2767 86.0363C83.1726 85.7487 82.9687 85.0991 82.8236 84.5926C82.6785 84.0861 82.5186 83.5507 82.4683 83.4027C82.418 83.2547 82.2862 82.8108 82.1755 82.4162C82.0648 82.0216 81.9183 81.5374 81.8499 81.3401C81.7815 81.1428 81.6832 80.8065 81.6313 80.5927C81.4477 79.8361 81.257 79.1895 81.1731 79.0393C81.1264 78.9557 81.0669 78.7531 81.041 78.5891C81.015 78.4251 80.9395 78.1621 80.8732 78.0047C80.8068 77.8473 80.753 77.659 80.7534 77.5862C80.7542 77.4596 80.5613 76.8006 80.2904 76.0042C80.2206 75.7988 80.1381 75.5028 80.1072 75.3466C80.0763 75.1903 79.9479 74.7127 79.8217 74.2852C79.6956 73.8578 79.5444 73.3331 79.4857 73.1194C79.3625 72.6707 79.1352 71.9227 78.9134 71.2361C78.7548 70.745 78.6205 70.2674 78.4536 69.6006C78.4013 69.3917 78.3185 69.1492 78.2697 69.0618C78.2208 68.9744 78.1601 68.7687 78.1347 68.6047C78.1093 68.4407 78.0351 68.1855 77.9698 68.0375C77.9045 67.8895 77.8209 67.6101 77.7841 67.4165C77.7473 67.2229 77.6904 67.0346 77.6576 66.998C77.6248 66.9614 77.5533 66.7138 77.4988 66.4477C77.4443 66.1817 77.3706 65.8992 77.335 65.82C77.2994 65.7408 77.1667 65.2724 77.04 64.7791C76.9133 64.2859 76.779 63.7882 76.7416 63.6731C76.6497 63.3906 76.3076 62.1936 76.1606 61.6403C75.8714 60.5519 75.7188 60.0228 75.6749 59.9571C75.6489 59.9182 75.5773 59.669 75.5158 59.4032C75.4543 59.1375 75.3585 58.8124 75.303 58.6809C75.2475 58.5494 75.2008 58.3532 75.1993 58.2451C74.8621 57.5402 74.7805 56.4209 74.4491 55.7601C74.4 55.6663 74.3285 55.4242 74.2903 55.2221C74.252 55.0199 74.1674 54.72 74.1023 54.5556C73.9804 54.2481 73.8353 53.75 73.6843 53.1207C73.5819 52.694 73.37 51.9509 73.0029 50.7312C72.8547 50.239 72.6954 49.674 72.6488 49.4757C72.5611 49.1019 72.3699 48.4418 72.1549 47.7698C72.0865 47.5561 71.9858 47.2198 71.931 47.0225C71.8762 46.8252 71.7581 46.4216 71.6684 46.1257C71.5788 45.8297 71.4626 45.4262 71.4102 45.2289C71.3577 45.0316 71.2595 44.6953 71.1919 44.4815C71.0212 43.9418 70.8788 43.453 70.739 42.9271C70.6735 42.6805 70.5771 42.3576 70.5249 42.2097C70.4726 42.0617 70.4003 41.8061 70.364 41.6417C70.2864 41.2892 70.0132 40.3086 69.8393 39.7584C69.7717 39.5447 69.6965 39.2353 69.672 39.0708C69.6476 38.9064 69.601 38.7259 69.5685 38.6698C69.536 38.6136 69.464 38.3463 69.4086 38.0758C69.3532 37.8054 69.2512 37.4814 69.182 37.3559C69.07 37.1527 69.0297 37.1278 68.8135 37.1278C68.1132 37.1278 63.8747 37.9329 62.8244 38.2655C62.6467 38.3218 62.356 38.4139 62.1783 38.4702C62.0006 38.5265 61.6808 38.6221 61.4676 38.6826C61.2544 38.743 60.8765 38.865 60.6277 38.9535C60.379 39.042 60.0447 39.1591 59.8848 39.2135C59.7249 39.268 59.3978 39.392 59.158 39.489C58.7377 39.659 58.7219 39.6731 58.7225 39.8763C58.7229 39.9923 58.7945 40.2217 58.8819 40.3862C58.9693 40.5506 59.0418 40.7736 59.0429 40.8818C59.044 40.99 59.103 41.1839 59.1741 41.3129C59.2452 41.4418 59.3033 41.6007 59.3033 41.6661C59.3033 41.7315 59.3771 42.0011 59.4673 42.2654C59.5575 42.5296 59.6868 42.9682 59.7546 43.24C59.8224 43.5118 59.9493 43.9763 60.0366 44.2723C60.467 45.7309 60.6218 46.277 60.7036 46.6252C60.7528 46.8342 60.8329 47.0767 60.8818 47.1641C60.9306 47.2515 60.9911 47.4572 61.0163 47.6211C61.0414 47.7851 61.1137 48.0303 61.1769 48.166C61.2401 48.3017 61.313 48.5573 61.3388 48.734C61.7318 50.1777 62.2176 51.6017 62.6017 53.031C62.6674 53.2777 62.7779 53.6812 62.8472 53.9278C62.9165 54.1745 63.0198 54.5511 63.0769 54.7649C63.1778 55.143 63.3077 55.5983 63.6654 56.8275C63.7611 57.1563 63.8905 57.6272 63.953 57.8738C64.0155 58.1204 64.1142 58.4222 64.1723 58.5445C64.2304 58.6667 64.2786 58.855 64.2794 58.963C64.8509 60.4011 65.0518 62.1843 65.6368 63.5834C65.6794 63.6821 65.7657 63.9645 65.8285 64.2112C65.8914 64.4578 65.9736 64.7403 66.0112 64.8389C66.0886 65.0419 66.3137 65.8421 66.4569 66.4233C66.5096 66.637 66.6066 66.9733 66.6725 67.1706C66.7384 67.3679 66.8354 67.7042 66.8882 67.9179C67.0548 68.5928 67.1877 69.0688 67.3472 69.5621C67.4322 69.8251 67.5203 70.1471 67.5429 70.2775C67.5655 70.4078 67.6217 70.5827 67.6677 70.6661C67.7138 70.7494 67.771 70.9387 67.7949 71.0866C67.9942 72.1235 68.5514 73.247 68.7332 74.2658C68.7656 74.4524 68.8337 74.681 68.8845 74.774C68.9354 74.8669 68.9961 75.0505 69.0196 75.182C69.043 75.3136 69.1183 75.5961 69.1869 75.8098C69.3568 76.339 69.5625 77.075 69.6717 77.5436C69.7214 77.7573 69.8032 78.0398 69.8534 78.1714C69.9036 78.3029 69.9945 78.6257 70.0554 78.8888C70.1764 79.4108 70.451 80.3974 70.5548 80.6824C70.6517 80.9487 70.9282 81.8945 71.0092 82.2369C71.0481 82.4013 71.1485 82.7286 71.2323 82.9643C71.3161 83.2001 71.3847 83.4634 71.3847 83.5497C71.3847 83.6359 71.4428 83.8119 71.5139 83.9408C71.585 84.0697 71.6431 84.2242 71.6431 84.2841C71.6431 84.344 71.6878 84.5401 71.7423 84.7199C72.0268 85.657 72.1706 86.1494 72.2308 86.392C72.2675 86.54 72.3436 86.8091 72.3999 86.9899C72.4563 87.1708 72.5373 87.4802 72.58 87.6775C72.6228 87.8748 72.7101 88.2245 72.774 88.4547C72.838 88.6849 72.9149 88.9699 72.9449 89.0882C73.0322 89.4323 73.3875 89.5218 74.0057 89.3554ZM100.296 83.0413C102.334 82.5949 104.418 81.9943 106.304 81.3165C106.482 81.2503 106.707 81.181 106.804 81.1625C107.155 81.0958 107.096 80.4416 106.722 80.2627C105.314 79.234 105.07 78.9235 104.14 78.0466C101.586 75.6407 99.8465 73.955 99.7611 73.8041C99.7154 73.7234 99.6525 73.6575 99.6213 73.6575C99.5596 73.6575 99.4496 73.5556 98.5977 72.7103C98.288 72.4031 97.9704 72.1283 97.8918 72.0998C97.8131 72.0712 97.6782 71.9459 97.592 71.8213C97.5057 71.6968 97.0322 71.2135 96.5397 70.7474C96.0472 70.2813 95.0338 69.3156 94.2876 68.6013C93.5414 67.887 92.5 66.8963 91.9733 66.3996C91.4467 65.9029 90.9724 65.4206 90.9193 65.3277C90.8663 65.2348 90.7373 65.1313 90.6328 65.0975C90.3126 64.9942 90.3047 64.6702 90.6009 63.7927C90.774 63.2798 90.9386 62.7019 91.0352 62.2681C91.0718 62.1037 91.1561 61.8346 91.2226 61.6702C91.2891 61.5058 91.3735 61.193 91.4103 60.9751C91.4471 60.7572 91.5175 60.4882 91.5669 60.3772C91.6163 60.2663 91.6781 60.0278 91.7044 59.8473C91.7306 59.6668 91.8065 59.425 91.873 59.3101C91.9396 59.1952 91.9941 58.9949 91.9941 58.8651C91.9941 58.7352 92.0488 58.5196 92.1157 58.3859C92.1826 58.2522 92.2709 57.941 92.312 57.6944C92.353 57.4478 92.4412 57.0846 92.5078 56.8873C92.5745 56.69 92.7484 56.0443 92.8941 55.4524C93.1587 54.3782 93.2371 54.0757 93.5143 53.0609C93.7874 52.0614 93.8835 51.687 93.9439 51.3869C93.977 51.2225 94.0493 50.9669 94.1045 50.8189C94.1596 50.671 94.2329 50.3885 94.2672 50.1912C94.3015 49.9939 94.382 49.7383 94.4461 49.6232C94.5101 49.5081 94.5835 49.266 94.6091 49.0851C94.6347 48.9043 94.7068 48.6472 94.7693 48.5139C94.8317 48.3806 94.9035 48.1385 94.9288 47.9758C94.954 47.8132 95.0312 47.5778 95.1004 47.4526C95.2718 47.1423 95.403 46.421 95.3123 46.287C95.1802 46.0917 94.8889 46.1186 92.737 46.524C92.3817 46.5909 91.8148 46.6948 91.4772 46.7548C91.1396 46.8148 90.7762 46.8951 90.6696 46.9333C90.563 46.9714 90.2602 47.0411 89.9967 47.0882C89.7332 47.1352 89.484 47.1996 89.4428 47.2312C89.4016 47.2629 89.1542 47.3304 88.893 47.3812C88.6318 47.432 88.3864 47.4979 88.3478 47.5276C88.3091 47.5573 88.1325 47.6144 87.9553 47.6545C87.7781 47.6947 87.5605 47.76 87.4716 47.7997C87.3828 47.8394 87.1793 47.9018 87.0194 47.9383C86.8595 47.9749 86.6135 48.0595 86.4727 48.1264C86.332 48.1934 86.1636 48.2481 86.0987 48.2481C86.0337 48.2481 85.8727 48.2987 85.7408 48.3605C85.609 48.4223 85.3792 48.4917 85.2303 48.5147C85.0813 48.5376 84.9264 48.5932 84.8861 48.6381C84.8458 48.6831 84.6686 48.7642 84.4923 48.8184C84.1173 48.9336 84.0085 49.0653 83.9506 49.4737C83.9272 49.6381 83.8696 49.9072 83.8226 50.0716C83.7755 50.236 83.7038 50.5589 83.6633 50.789C83.5925 51.1917 83.4754 51.7067 83.2079 52.7919C83.139 53.0714 83.036 53.5288 82.979 53.8083C82.8741 54.3226 82.7124 55.0123 82.5306 55.7215C82.4758 55.9352 82.3866 56.3253 82.3323 56.5884C82.278 56.8514 82.1907 57.1925 82.1382 57.3463C82.0857 57.5001 82.0148 57.8298 81.9807 58.0789C81.9465 58.328 81.8739 58.6117 81.8193 58.7095C81.7647 58.8072 81.7017 59.056 81.6793 59.2623C81.6569 59.4687 81.5881 59.7585 81.5264 59.9065C81.4647 60.0545 81.3935 60.3504 81.3681 60.5642C81.3427 60.7779 81.2798 61.0333 81.2283 61.1316C81.1768 61.23 81.1043 61.5122 81.0672 61.7587C81.0302 62.0053 80.9603 62.2945 80.912 62.4015C80.8637 62.5085 80.7948 62.7913 80.759 63.0299C80.7231 63.2686 80.6525 63.572 80.602 63.7042C80.5516 63.8364 80.49 64.092 80.4651 64.2722C80.4402 64.4524 80.365 64.8016 80.298 65.0482C80.231 65.2948 80.1295 65.7253 80.0726 66.0048C80.0156 66.2843 79.8958 66.7895 79.8063 67.1274C79.5814 67.9764 79.611 68.0977 80.159 68.5771C80.3967 68.7849 80.7364 69.1079 80.9141 69.2949C81.5238 69.9365 83.5577 71.8571 83.7046 71.9298C83.7854 71.9698 83.8691 72.0537 83.8905 72.1161C83.9119 72.1786 84.1481 72.4366 84.4154 72.6895C84.6827 72.9424 84.9305 73.2242 84.9661 73.3158C85.0051 73.416 85.1296 73.529 85.2787 73.5994C85.415 73.6638 85.5499 73.753 85.5784 73.7978C85.607 73.8425 85.6924 73.9093 85.7682 73.9461C85.8503 73.9859 85.923 74.0965 85.948 74.2198C85.9813 74.3844 86.0324 74.44 86.1978 74.4917C86.3121 74.5274 86.4928 74.6549 86.5994 74.775C86.706 74.8951 86.9094 75.0896 87.0514 75.2073C87.1934 75.3249 87.4115 75.5265 87.536 75.6553C87.6605 75.7841 87.9441 76.0622 88.1661 76.2734C88.3882 76.4845 88.9432 77.0249 89.3994 77.4741C89.8556 77.9234 90.4967 78.5465 90.8241 78.8589C91.8017 79.7917 93.029 80.9751 93.1183 81.071C93.1643 81.1203 93.3153 81.2586 93.454 81.3783C93.5927 81.4979 94.0405 81.9247 94.4491 82.3265C96.0597 84.3784 98.1263 83.609 100.296 83.0413ZM113.743 79.4318C114.022 79.3852 114.463 79.3297 114.721 79.3084C114.98 79.2872 115.285 79.2338 115.4 79.1898C116.953 78.8328 118.891 78.6408 120.338 78.0005C120.44 77.9521 120.637 77.8933 120.778 77.8697C120.919 77.8461 121.093 77.7986 121.164 77.7642C121.235 77.7298 121.511 77.6294 121.778 77.5411C123.616 76.9316 123.595 76.9467 123.357 76.4207C122.146 71.7838 119.962 66.0325 118.775 60.7734C118.733 60.5761 118.662 60.3526 118.619 60.2769C118.575 60.2011 118.511 59.9768 118.476 59.7783C118.442 59.5798 118.374 59.3593 118.326 59.2883C118.277 59.2173 118.205 58.9799 118.165 58.7608C118.126 58.5417 118.05 58.2862 117.998 58.1929C117.945 58.0996 117.902 57.9522 117.902 57.8654C117.902 57.7785 117.831 57.4557 117.746 57.1479C117.529 56.3648 117.359 54.7497 117.405 53.9115C117.457 52.9498 117.561 52.2645 117.701 51.9549C117.768 51.8069 117.843 51.5723 117.867 51.4335C117.892 51.2947 117.963 51.1199 118.026 51.0449C118.089 50.9699 118.159 50.8346 118.183 50.7442C118.207 50.6538 118.256 50.5798 118.292 50.5798C118.328 50.5798 118.414 50.4587 118.483 50.3107C118.551 50.1628 118.637 50.0417 118.673 50.0417C118.709 50.0417 118.797 49.9347 118.87 49.8038C118.942 49.6729 119.08 49.5272 119.178 49.4799C119.275 49.4326 119.469 49.2773 119.609 49.1349C119.855 48.8851 120.448 48.4873 120.575 48.4873C120.609 48.4873 120.683 48.4513 120.739 48.4074C120.795 48.3635 120.942 48.2918 121.067 48.2481C121.191 48.2044 121.337 48.1343 121.391 48.0923C121.445 48.0503 121.614 47.9898 121.767 47.958C121.92 47.9262 122.095 47.8587 122.155 47.8079C122.216 47.7572 122.396 47.6972 122.554 47.6745C122.713 47.6518 122.989 47.5791 123.167 47.5129C123.437 47.4119 123.647 47.3916 124.465 47.3869C125.145 47.3829 125.468 47.4032 125.535 47.4542C125.587 47.4944 125.778 47.5565 125.958 47.5922C126.138 47.628 126.381 47.7229 126.499 47.8032C126.616 47.8835 126.753 47.9492 126.802 47.9492C126.919 47.9492 127.705 48.6508 127.827 48.8642C127.879 48.9564 128.036 49.1407 128.176 49.2737C128.315 49.4068 128.5 49.6273 128.587 49.7637C128.955 50.3447 129.408 51.1537 129.445 51.2946C129.466 51.3782 129.542 51.5543 129.614 51.6858C129.76 51.9563 129.997 52.5741 130.173 53.1506C130.239 53.3644 130.338 53.6468 130.393 53.7784C130.448 53.9099 130.495 54.099 130.497 54.1985C130.498 54.2981 130.546 54.4406 130.602 54.5152C130.659 54.5898 130.746 54.8689 130.796 55.1355C130.846 55.402 130.916 55.6519 130.951 55.6908C130.986 55.7297 131.057 55.9658 131.108 56.2156C132.574 61.3979 134.361 66.8683 135.578 71.7443C135.992 73.4422 136.026 73.5507 136.185 73.6698C136.287 73.7464 136.397 73.7751 136.505 73.7537C136.595 73.7358 136.945 73.692 137.283 73.6564C137.621 73.6207 138.1 73.5415 138.349 73.4804C138.598 73.4193 138.983 73.3521 139.205 73.3311C139.427 73.3101 139.703 73.2569 139.819 73.2129C139.934 73.1689 140.247 73.0998 140.513 73.0592C140.78 73.0187 141.071 72.9509 141.161 72.9086C141.25 72.8662 141.497 72.8019 141.71 72.7656C141.922 72.7293 142.242 72.6496 142.419 72.5884C142.947 72.4068 143.366 72.2799 143.744 72.1877C143.939 72.1399 144.153 72.0723 144.219 72.0374C144.34 71.9736 144.87 71.7979 145.718 71.5403C146.335 71.3531 146.426 71.3014 146.524 71.0821C146.599 70.9141 146.589 70.8378 146.429 70.3773C146.142 69.549 146.027 69.1882 145.81 68.4261C144.538 64.0597 143.296 59.9357 142.076 55.5328C142.007 55.2811 141.932 55.0487 141.911 55.0163C141.889 54.984 141.827 54.7595 141.772 54.5174C141.718 54.2754 141.633 53.9966 141.584 53.898C141.337 53.2541 141.247 52.3722 140.965 51.7532C140.901 51.6175 140.83 51.3854 140.806 51.2374C140.782 51.0895 140.708 50.807 140.64 50.6097C140.35 49.7671 140.19 49.2248 140.188 49.0851C140.187 49.0029 140.13 48.828 140.061 48.6965C139.992 48.565 139.935 48.3959 139.934 48.3208C139.929 48.0274 139.053 45.648 138.707 44.9897C138.638 44.8582 138.463 44.5219 138.319 44.2424C138.174 43.9629 137.97 43.5997 137.864 43.4353C137.758 43.2709 137.642 43.0725 137.605 42.9945C137.569 42.9164 137.406 42.6916 137.245 42.4949C137.083 42.2982 136.933 42.093 136.911 42.0389C136.89 41.9848 136.712 41.7657 136.517 41.552C136.322 41.3383 136.109 41.0827 136.044 40.984C135.979 40.8854 135.821 40.7374 135.692 40.6552C135.563 40.573 135.342 40.3935 135.202 40.2562C135.061 40.119 134.745 39.8819 134.5 39.7293C134.254 39.5767 134.053 39.4288 134.053 39.4005C134.053 39.3723 133.953 39.3188 133.832 39.2817C133.71 39.2446 133.574 39.1728 133.528 39.1223C133.483 39.0717 133.226 38.9368 132.958 38.8223C132.689 38.7079 132.383 38.5768 132.276 38.5311C131.977 38.4027 131.338 38.2036 131.016 38.1382C130.856 38.1057 130.478 38.0204 130.176 37.9485C129.681 37.8307 129.465 37.818 127.98 37.8188C126.691 37.8195 126.227 37.8411 125.848 37.9183C125.581 37.9725 125.102 38.0487 124.782 38.0875C124.462 38.1263 124.099 38.1976 123.974 38.2458C123.85 38.2941 123.565 38.3582 123.342 38.3884C123.118 38.4186 122.871 38.4809 122.793 38.527C122.714 38.573 122.548 38.628 122.424 38.649C121.787 38.7569 120.026 39.5991 118.953 40.3084C118.839 40.3841 118.64 40.5132 118.511 40.5954C118.382 40.6776 118.069 40.9081 117.815 41.1077C117.56 41.3072 117.303 41.4874 117.242 41.5082C117.182 41.5289 117.083 41.6347 117.023 41.7432C116.963 41.8518 116.831 42.029 116.729 42.137C116.628 42.245 116.544 42.3544 116.544 42.38C116.544 42.4057 116.399 42.5594 116.222 42.7217C116.045 42.884 115.9 43.0549 115.899 43.1014C115.898 43.148 115.772 43.3767 115.617 43.6096C115.198 44.24 114.771 45.0469 114.61 45.512C114.567 45.6349 114.508 45.7494 114.478 45.7664C114.448 45.7835 114.403 45.9117 114.379 46.0513C114.31 46.4358 114.176 46.6898 114.011 46.7473C113.804 46.8197 113.656 46.7297 113.603 46.4998C113.578 46.3927 113.521 46.2647 113.475 46.2154C113.429 46.166 113.313 45.9104 113.216 45.6474C112.824 44.5765 111.846 42.6889 111.518 42.3692L111.344 42.1998L110.698 42.2412C110.342 42.264 109.955 42.3195 109.836 42.3647C109.718 42.4099 109.249 42.4869 108.795 42.5359C108.341 42.5849 107.886 42.6543 107.784 42.6902C107.682 42.7261 107.424 42.7908 107.21 42.834C106.712 42.9345 105.726 43.2042 105.566 43.2837C105.498 43.3174 105.055 43.469 104.581 43.6205C102.925 44.1505 102.977 44.1295 102.871 44.318C102.784 44.474 102.784 44.526 102.867 44.7719C102.919 44.9246 103.054 45.332 103.167 45.6773C103.28 46.0225 103.443 46.5128 103.53 46.7668C103.617 47.0207 103.688 47.2821 103.688 47.3475C103.688 47.4129 103.742 47.5952 103.809 47.7527C103.875 47.9101 103.964 48.2248 104.006 48.452C104.048 48.6792 104.121 48.9348 104.168 49.02C104.215 49.1051 104.276 49.2959 104.302 49.4438C104.328 49.5918 104.401 49.834 104.463 49.9819C104.526 50.1299 104.598 50.3989 104.624 50.5798C104.65 50.7606 104.713 50.9525 104.764 51.0062C104.815 51.0598 104.888 51.2885 104.926 51.5143C104.963 51.7402 105.035 51.9982 105.085 52.0878C105.135 52.1773 105.216 52.4464 105.266 52.6856C105.316 52.9249 105.403 53.2014 105.459 53.3001C105.515 53.3987 105.561 53.5624 105.561 53.6639C105.561 53.7653 105.617 54.0075 105.686 54.202C105.754 54.3965 105.87 54.7843 105.944 55.0638C106.017 55.3433 106.15 55.8141 106.239 56.1101C106.398 56.643 106.719 57.7735 106.858 58.2923C106.898 58.4403 106.997 58.7766 107.079 59.0396C107.25 59.5897 107.342 59.9097 107.476 60.4147C107.529 60.612 107.628 60.9349 107.698 61.1321C107.767 61.3294 107.825 61.5447 107.825 61.6104C107.826 61.6762 107.884 61.878 107.954 62.0588C108.024 62.2397 108.124 62.5859 108.176 62.8281C108.229 63.0703 108.302 63.303 108.34 63.3452C108.378 63.3874 108.437 63.5836 108.472 63.781C108.506 63.9785 108.591 64.257 108.661 64.3998C108.732 64.5427 108.79 64.7268 108.791 64.809C108.793 64.8912 108.906 65.3486 109.043 65.8254C109.181 66.3022 109.416 67.1228 109.566 67.6489C109.715 68.175 109.908 68.8247 109.993 69.0925C110.079 69.3604 110.148 69.6352 110.148 69.7031C110.148 69.7711 110.205 69.9585 110.273 70.1196C110.342 70.2807 110.43 70.5763 110.469 70.7766C110.509 70.9769 110.594 71.2564 110.66 71.3977C110.726 71.539 110.799 71.7988 110.822 71.9751C110.846 72.1513 110.904 72.3531 110.951 72.4235C110.999 72.4938 111.054 72.6859 111.073 72.8503C111.093 73.0148 111.167 73.2703 111.237 73.4183C111.308 73.5663 111.386 73.8219 111.411 73.9863C111.437 74.1507 111.499 74.3611 111.55 74.4538C111.601 74.5465 111.684 74.8249 111.735 75.0725C111.787 75.3201 111.846 75.5492 111.868 75.5817C111.918 75.657 112.19 76.6123 112.311 77.1406C112.362 77.3628 112.447 77.6856 112.5 77.858C112.628 78.2706 112.798 78.9832 112.797 79.1049C112.797 79.2316 113.041 79.5166 113.15 79.5166C113.197 79.5166 113.464 79.4784 113.743 79.4318H113.743ZM145.908 27.557C146.086 27.5268 146.39 27.4618 146.584 27.4125C146.779 27.3631 147.016 27.3228 147.111 27.3228C147.207 27.3228 147.47 27.2685 147.695 27.2022C147.92 27.1359 148.315 27.0559 148.573 27.0243C148.831 26.9927 149.125 26.9271 149.227 26.8784C149.328 26.8297 149.588 26.7636 149.803 26.7316C150.018 26.6996 150.276 26.6338 150.377 26.5853C150.479 26.5369 150.706 26.4777 150.883 26.4538C151.061 26.4298 151.314 26.36 151.445 26.2985C151.577 26.2371 151.752 26.1856 151.833 26.1842C151.914 26.1827 152.097 26.1397 152.239 26.0885C152.382 26.0374 152.687 25.9463 152.918 25.8862C153.543 25.7233 155.19 25.1776 155.351 25.0797C155.536 24.9679 155.595 24.7818 155.51 24.5831C155.472 24.4951 155.398 24.1137 155.346 23.7356C155.294 23.3574 155.208 22.9538 155.157 22.8388C155.105 22.7237 155.041 22.4681 155.015 22.2708C154.99 22.0735 154.916 21.7506 154.853 21.5533C154.789 21.356 154.703 21.0332 154.66 20.8359C154.618 20.6386 154.556 20.4462 154.523 20.4084C154.49 20.3706 154.434 20.1738 154.399 19.9712C154.364 19.7685 154.278 19.5039 154.208 19.3832C154.138 19.2624 154.081 19.0884 154.081 18.9965C154.081 18.9046 154.008 18.6696 153.919 18.4743C153.83 18.279 153.758 18.0632 153.758 17.9947C153.758 17.9263 153.701 17.7708 153.632 17.6492C153.564 17.5275 153.445 17.2532 153.369 17.0394C153.044 16.1266 153.013 16.065 152.807 15.9198C152.627 15.7928 152.571 15.7813 152.387 15.8338C152.27 15.8672 151.913 15.9261 151.593 15.9648C151.273 16.0035 150.91 16.0691 150.786 16.1107C150.661 16.1522 150.312 16.2192 150.01 16.2595C149.708 16.2999 149.258 16.3823 149.009 16.4426C148.76 16.5029 148.397 16.5707 148.201 16.5932C148.006 16.6158 147.754 16.6691 147.642 16.7118C147.53 16.7545 147.273 16.8212 147.071 16.86C146.869 16.8989 146.583 16.9814 146.435 17.0435C146.287 17.1056 146.093 17.157 146.004 17.1577C145.915 17.1584 145.74 17.2083 145.616 17.2685C145.492 17.3287 145.246 17.4136 145.068 17.4571C144.89 17.5007 144.708 17.5625 144.664 17.5946C144.619 17.6266 144.401 17.7012 144.179 17.7603C143.507 17.9396 143.063 18.0812 142.904 18.1672C142.85 18.196 142.677 18.2567 142.518 18.3021C142.061 18.4329 142.009 18.5741 142.152 19.2928C142.217 19.6154 142.295 20.0542 142.327 20.2679C142.426 20.946 142.645 21.9465 142.87 22.7491C142.99 23.1765 143.107 23.614 143.13 23.7212C143.154 23.8284 143.217 23.9982 143.271 24.0985C143.325 24.1988 143.385 24.3935 143.403 24.5313C143.422 24.6691 143.489 24.8625 143.553 24.9612C143.616 25.0598 143.688 25.2482 143.712 25.3797C143.736 25.5112 143.807 25.6872 143.871 25.7707C143.934 25.8542 144.007 26.0116 144.033 26.1205C144.076 26.3026 144.179 26.5355 144.536 27.263C144.609 27.4109 144.696 27.5649 144.729 27.6052C144.794 27.6826 145.286 27.6624 145.908 27.557ZM24.3513 112.512C23.1112 112.464 21.4126 112.124 20.7011 111.781C20.5945 111.73 20.3171 111.61 20.0846 111.514C19.5656 111.301 18.6136 110.724 18.1887 110.365C17.479 109.764 16.7397 109.049 16.4048 108.639C16.2094 108.4 16.0198 108.173 15.9836 108.134C15.8917 108.037 15.3682 107.251 15.1963 106.953C15.1179 106.816 15.0116 106.661 14.96 106.608C14.9084 106.554 14.8337 106.397 14.7939 106.259C14.7541 106.12 14.6951 105.992 14.6628 105.974C14.5865 105.93 14.3202 105.392 14.0402 104.717C13.9175 104.421 13.7771 104.111 13.728 104.029C13.679 103.947 13.5952 103.732 13.5419 103.551C13.4886 103.37 13.3876 103.087 13.3174 102.923C13.1463 102.522 12.8697 101.717 12.8145 101.459C12.79 101.345 12.7343 101.197 12.6908 101.13C12.6473 101.064 12.5772 100.859 12.5349 100.674C12.4927 100.489 12.4013 100.234 12.3318 100.108C12.2623 99.9818 12.2045 99.7968 12.2034 99.6969C12.2023 99.597 12.1298 99.3807 12.0424 99.2163C11.955 99.0519 11.8833 98.8423 11.8829 98.7506C11.8826 98.6588 11.8277 98.4839 11.7609 98.3619C11.6941 98.2399 11.6186 98.0191 11.5932 97.8711C11.5677 97.7231 11.5057 97.542 11.4554 97.4686C11.4051 97.3951 11.3226 97.1665 11.2719 96.9604C11.2213 96.7543 11.1335 96.4512 11.0769 96.2868C10.9001 95.7733 10.7191 95.2226 10.625 94.9117C10.3901 94.1352 10.1334 93.3794 9.97522 92.9985C9.87965 92.7683 9.74867 92.441 9.68414 92.2713C9.61962 92.1015 9.52376 91.8997 9.47111 91.8229C9.41847 91.746 9.35613 91.5976 9.33259 91.493C9.30905 91.3884 9.24954 91.2719 9.20034 91.2341C9.15115 91.1963 9.0763 91.0667 9.03401 90.946C8.99173 90.8253 8.90888 90.6593 8.84989 90.5771C8.79091 90.4949 8.70726 90.3604 8.66401 90.2782C8.62076 90.196 8.4996 90.0076 8.39477 89.8597C8.28994 89.7117 8.14091 89.483 8.06359 89.3515C7.88629 89.0499 6.4443 87.7273 6.07548 87.528C5.92335 87.4458 5.72129 87.3217 5.62646 87.2522C5.53162 87.1827 5.38191 87.1049 5.29377 87.0794C5.20562 87.0538 5.06026 86.9839 4.97073 86.924C4.88121 86.8641 4.57539 86.7319 4.29112 86.6301C4.00685 86.5284 3.61073 86.3794 3.41086 86.299C3.21098 86.2187 3.01535 86.1529 2.97612 86.1529C2.93689 86.1529 2.72248 86.1014 2.49965 86.0386C2.27682 85.9757 1.77471 85.8683 1.38384 85.7998C0.437366 85.6342 0.386968 85.5949 0.246599 84.9139C0.184864 84.6144 0.102955 84.315 0.0645794 84.2487C-0.0500517 84.0504 -0.0164699 83.8839 0.200666 83.5738C0.328982 83.3906 0.468914 83.2657 0.572151 83.2423C0.818779 83.1864 1.03788 83.0193 1.77286 82.3265C2.98507 81.184 3.82965 79.8386 4.27455 78.3413L4.48493 77.6333L4.48201 76.1087C4.47965 74.8781 4.45785 74.5056 4.36895 74.1769C4.30838 73.9529 4.25882 73.6703 4.25882 73.549C4.25882 73.2992 4.08676 72.4476 3.83981 71.4753C3.74796 71.1135 3.61349 70.562 3.54099 70.2496C3.4685 69.9372 3.36884 69.5337 3.31953 69.3528C3.0109 68.2209 2.84638 67.5487 2.80875 67.2659C2.7851 67.0881 2.72429 66.8685 2.67362 66.7778C2.62295 66.6871 2.56228 66.4559 2.53881 66.264C2.51533 66.0721 2.44496 65.793 2.38244 65.6438C2.31992 65.4947 2.24785 65.2122 2.22229 65.0161C2.19673 64.82 2.13361 64.5654 2.08203 64.4503C2.03044 64.3352 1.94544 63.9989 1.89313 63.703C1.84082 63.4071 1.75776 63.0304 1.70854 62.866C1.65933 62.7016 1.58587 62.288 1.5453 61.9469C1.50474 61.6058 1.4437 61.259 1.40966 61.1762C1.2944 60.8956 1.2067 59.1108 1.24445 57.814C1.27432 56.7877 1.30748 56.4473 1.40889 56.1255C1.47876 55.9038 1.55566 55.5675 1.57978 55.3782C1.60391 55.1888 1.66156 54.978 1.7079 54.9097C1.75424 54.8414 1.83667 54.653 1.89108 54.4912C2.05574 54.0013 2.32493 53.4408 2.58812 53.0399C2.72527 52.831 2.83748 52.6397 2.83748 52.6146C2.83748 52.5896 2.92341 52.4646 3.02844 52.3368C3.51492 51.7447 3.72256 51.5347 3.88314 51.4726C3.98185 51.4344 4.08545 51.3289 4.12354 51.2278C4.16036 51.1301 4.25362 51.0028 4.33079 50.945C4.40797 50.8872 4.50329 50.7502 4.54263 50.6405C4.5976 50.4873 4.67146 50.4229 4.86179 50.3624C4.99799 50.3191 5.25746 50.169 5.43838 50.0288C6.05525 49.5509 8.25599 48.4027 8.91046 48.2173C8.9993 48.1922 9.1733 48.1215 9.29714 48.0604C9.42099 47.9992 9.56635 47.9483 9.62018 47.9473C9.674 47.9463 9.86341 47.8793 10.0411 47.7984C10.2187 47.7175 10.4016 47.6511 10.4474 47.6508C10.4933 47.6503 10.6386 47.6 10.7705 47.5385C10.9023 47.4771 11.1418 47.4091 11.3026 47.3874C11.4635 47.3657 11.6782 47.3081 11.7798 47.2593C11.9561 47.1747 12.2398 47.0961 13.5132 46.7791C13.8238 46.7018 14.1345 46.6106 14.2035 46.5764C14.2724 46.5422 14.3942 46.5143 14.4739 46.5143C14.5537 46.5143 14.7104 46.4837 14.8223 46.4463C15.0956 46.3548 15.3727 46.4771 15.4505 46.7235C15.4816 46.8222 15.5748 47.0374 15.6576 47.2018C15.7403 47.3663 15.8552 47.5949 15.9129 47.71C15.9707 47.8251 16.0595 48.0538 16.1105 48.2182C16.1614 48.3826 16.2799 48.7189 16.3739 48.9655C16.6448 49.6767 16.9773 50.9036 17.119 51.7157C17.1907 52.1268 17.2774 52.5572 17.3117 52.6723C17.346 52.7874 17.3926 53.1011 17.4153 53.3693L17.4566 53.8571L17.2053 53.9757C17.067 54.0409 16.6669 54.1518 16.3161 54.2221C15.9653 54.2924 15.631 54.3725 15.5732 54.4001C15.5153 54.4276 15.3153 54.4833 15.1286 54.5238C14.942 54.5644 14.7736 54.621 14.7544 54.6497C14.7352 54.6784 14.5972 54.7319 14.4477 54.7686C14.2982 54.8053 14.1177 54.8837 14.0467 54.9427C13.9756 55.0017 13.8459 55.0702 13.7584 55.0949C13.6709 55.1195 13.5482 55.1998 13.4858 55.2733C13.4233 55.3467 13.2902 55.422 13.19 55.4406C12.8458 55.5043 12.0363 56.369 11.8408 56.8817C11.7916 57.0106 11.7216 57.1493 11.6852 57.19C11.6487 57.2306 11.5741 57.6365 11.5193 58.0919C11.4281 58.8507 11.4288 59.0052 11.5285 59.9364C11.5884 60.4954 11.6795 61.047 11.7311 61.162C11.7827 61.2771 11.8525 61.5729 11.8863 61.8193C11.9201 62.0657 12.0057 62.4222 12.0766 62.6117C12.1474 62.8011 12.206 63.0435 12.2068 63.1502C12.2076 63.2569 12.2649 63.4598 12.3342 63.6011C12.4035 63.7424 12.4795 63.9979 12.5031 64.1691C12.5267 64.3402 12.5984 64.6147 12.6624 64.7791C12.7264 64.9436 12.8138 65.253 12.8567 65.4667C12.8995 65.6804 12.9645 65.9091 13.0012 65.9749C13.0378 66.0406 13.1168 66.3097 13.1766 66.5727C13.2364 66.8358 13.3767 67.4546 13.4885 67.9478C13.6002 68.4411 13.7226 68.9792 13.7605 69.1436C13.9052 69.7719 14.0859 70.7868 14.1809 71.5051C14.2353 71.9162 14.3077 72.3466 14.3419 72.4617C14.4627 72.8679 14.5301 73.7607 14.5294 74.9429C14.5286 76.1131 14.4896 76.4733 14.2476 77.5436C14.0695 78.3309 13.5583 79.5126 13.3034 79.726C13.2325 79.7854 13.1745 79.8689 13.1745 79.9114C13.1745 79.9786 12.3844 80.8486 12.155 81.0341C11.7405 81.369 11.3085 81.8121 11.2746 81.9369C11.2002 82.2112 11.3275 82.3264 11.707 82.328C12.1728 82.3299 12.7207 82.4709 13.5944 82.8135C14.6966 83.2456 15.1894 83.5381 15.9525 84.2129C16.2546 84.4799 16.5489 84.7141 16.6066 84.7333C16.6643 84.7525 16.7316 84.8672 16.7561 84.9881C16.783 85.1211 16.8889 85.2895 17.0241 85.4147C17.1471 85.5285 17.3193 85.7209 17.407 85.8424C17.4946 85.9638 17.6145 86.1305 17.6734 86.2127C17.7324 86.2949 17.8298 86.4294 17.8901 86.5116C17.9503 86.5938 18.0347 86.7598 18.0777 86.8805C18.1206 87.0012 18.196 87.1308 18.2452 87.1686C18.2944 87.2064 18.3529 87.3143 18.3753 87.4084C18.3976 87.5025 18.456 87.6103 18.5051 87.648C18.5542 87.6857 18.6411 87.8469 18.6983 88.0063C18.7555 88.1656 18.8424 88.3269 18.8915 88.3645C18.9406 88.4022 18.9992 88.5107 19.0217 88.6056C19.0442 88.7005 19.1653 89.0013 19.2909 89.2741C19.4164 89.5468 19.564 89.9045 19.6188 90.0689C19.6736 90.2333 19.76 90.4267 19.8108 90.4986C19.8615 90.5706 19.9425 90.7589 19.9906 90.9171C20.0387 91.0754 20.2256 91.6018 20.4058 92.087C20.586 92.5721 20.7334 93.0108 20.7334 93.0618C20.7334 93.1128 20.7925 93.2746 20.8648 93.4214C20.9371 93.5682 21.0221 93.8022 21.0537 93.9413C21.0853 94.0804 21.1558 94.3018 21.2102 94.4334C21.2646 94.5649 21.3111 94.7398 21.3134 94.822C21.3158 94.9042 21.3737 95.0856 21.4421 95.2251C21.5106 95.3647 21.596 95.6263 21.632 95.8066C21.6681 95.9868 21.7385 96.209 21.7885 96.3002C21.8386 96.3914 21.9007 96.6003 21.9265 96.7643C21.9523 96.9282 22.0153 97.1374 22.0666 97.2291C22.1178 97.3208 22.1892 97.5433 22.2252 97.7235C22.2612 97.9038 22.3467 98.1654 22.4151 98.3049C22.4835 98.4445 22.5402 98.6439 22.541 98.748C22.5417 98.8521 22.6011 99.0642 22.6729 99.2192C22.7447 99.3742 22.9049 99.7867 23.0289 100.136C23.1528 100.485 23.2965 100.851 23.3482 100.95C23.3998 101.049 23.5006 101.251 23.5721 101.399C23.6436 101.546 23.7386 101.721 23.7832 101.787C23.8278 101.853 23.9515 102.041 24.0582 102.206C24.5768 103.005 25.0735 103.462 25.8272 103.833C26.34 104.085 26.4482 104.115 27.1294 104.186C27.7616 104.252 28.0072 104.25 28.7769 104.173C29.2919 104.122 29.8066 104.036 29.9721 103.973C30.132 103.912 30.3935 103.843 30.5532 103.819C30.7129 103.794 30.9451 103.724 31.0691 103.663C31.1931 103.601 31.4201 103.551 31.5734 103.551C31.8356 103.551 31.858 103.564 31.9479 103.775C32.0005 103.898 32.0862 104.071 32.1384 104.158C32.1906 104.245 32.2333 104.352 32.2333 104.396C32.2333 104.44 32.3026 104.611 32.3873 104.776C32.6851 105.356 32.9186 106.017 33.359 107.527C33.4453 107.823 33.5317 108.159 33.5509 108.274C33.5702 108.389 33.6765 108.957 33.7871 109.535C33.9576 110.428 33.9771 110.625 33.9157 110.836C33.823 111.154 33.7002 111.221 32.9117 111.378C32.5563 111.449 32.1784 111.531 32.0718 111.561C31.9652 111.59 31.7617 111.633 31.6196 111.654C31.4774 111.676 31.1867 111.741 30.9735 111.799C30.7603 111.858 30.4466 111.924 30.2765 111.947C30.1064 111.97 29.8738 112.025 29.7597 112.069C29.6455 112.113 29.2614 112.179 28.9061 112.217C28.5508 112.254 27.9984 112.337 27.6786 112.4C27.0225 112.53 25.8361 112.57 24.3513 112.512ZM180.769 74.5399C180.681 74.4974 180.575 74.3621 180.526 74.2294C180.478 74.1001 180.398 73.9521 180.35 73.9006C180.301 73.8491 180.239 73.7151 180.214 73.6028C180.188 73.4905 180.097 73.278 180.013 73.1305C179.928 72.9831 179.859 72.8101 179.859 72.746C179.859 72.682 179.816 72.5582 179.764 72.471C179.662 72.302 179.218 70.8573 179.053 70.16C178.89 69.4719 178.566 67.6229 178.566 67.3807C178.566 67.1224 178.65 67.0377 178.96 66.9831C179.081 66.9617 179.253 66.9109 179.342 66.8701C179.43 66.8294 179.663 66.7782 179.859 66.7564C180.054 66.7346 180.345 66.6671 180.505 66.6063C180.664 66.5455 181.013 66.4207 181.28 66.3288C181.546 66.237 181.808 66.1303 181.861 66.0918C181.915 66.0532 182.053 65.9923 182.169 65.9563C182.442 65.8717 183.271 65.2936 183.55 64.9935C183.909 64.6075 184.123 64.3171 184.123 64.2156C184.123 64.1629 184.179 64.0229 184.247 63.9045C184.393 63.652 184.428 63.4891 184.505 62.6866C184.55 62.216 184.536 61.8745 184.438 61.0823C184.371 60.5287 184.282 60.0194 184.243 59.9506C184.203 59.8817 184.144 59.6082 184.112 59.3428C184.08 59.0774 183.999 58.6854 183.932 58.4716C183.865 58.2579 183.79 57.962 183.765 57.814C183.74 57.666 183.681 57.4743 183.633 57.388C183.585 57.3017 183.516 57.0562 183.479 56.8424C183.442 56.6286 183.372 56.3629 183.323 56.252C183.274 56.141 183.198 55.8619 183.153 55.6318C183.108 55.4016 183.044 55.1633 183.01 55.1022C182.976 55.0411 182.893 54.7586 182.827 54.4744C182.761 54.1903 182.66 53.7694 182.603 53.5392C182.545 53.3091 182.415 52.7844 182.313 52.3734C182.211 51.9624 182.097 51.4646 182.059 51.2673C182.022 51.07 181.963 50.7799 181.928 50.6226C181.893 50.4654 181.833 50.1022 181.796 49.8155C181.758 49.5289 181.678 49.0791 181.619 48.8161C181.53 48.4266 181.51 47.977 181.508 46.3947C181.506 44.5089 181.511 44.4296 181.679 43.7043C181.922 42.6564 182.288 41.8073 182.767 41.1816C182.876 41.0401 183.032 40.8301 183.114 40.715C183.299 40.4575 184.351 39.485 184.583 39.3567C184.679 39.304 184.784 39.169 184.825 39.0474C184.921 38.7584 184.841 38.71 184.18 38.659C183.892 38.6368 183.55 38.5777 183.421 38.5278C183.292 38.4779 183.056 38.4101 182.896 38.377C182.639 38.3241 182.442 38.2515 181.797 37.9714C181.471 37.8302 181.237 37.6883 180.774 37.3511C180.514 37.1616 180.218 36.9668 180.117 36.9183C180.015 36.8698 179.916 36.7828 179.896 36.7249C179.875 36.667 179.728 36.4862 179.568 36.3232C179.408 36.1601 179.277 35.9948 179.277 35.9558C179.277 35.9167 179.154 35.7633 179.002 35.6149C178.851 35.4664 178.629 35.1879 178.507 34.9958C178.386 34.8038 178.241 34.583 178.184 34.5053C177.862 34.0608 176.899 32.319 176.627 31.6872C176.388 31.134 176.169 30.5974 176.04 30.2523C175.973 30.0715 175.888 29.8697 175.853 29.8039C175.817 29.7381 175.733 29.496 175.666 29.2658C175.599 29.0356 175.453 28.5783 175.342 28.2495C175.231 27.9206 175.083 27.4527 175.012 27.2096C174.942 26.9666 174.854 26.734 174.817 26.6928C174.78 26.6517 174.733 26.4739 174.712 26.2978C174.692 26.1216 174.634 25.9176 174.585 25.8443C174.535 25.771 174.452 25.5211 174.399 25.2889C174.346 25.0568 174.263 24.7939 174.215 24.7048C174.166 24.6156 174.107 24.4255 174.083 24.2823C174.06 24.1391 173.996 23.9434 173.943 23.8474C173.889 23.7513 173.814 23.5193 173.777 23.3317C173.74 23.1441 173.671 22.9223 173.624 22.8388C173.577 22.7552 173.507 22.5281 173.469 22.334C173.43 22.1399 173.359 21.9252 173.311 21.8569C173.262 21.7886 173.177 21.5982 173.121 21.4338C173.064 21.2693 172.927 20.9061 172.815 20.6266C172.704 20.3471 172.567 19.9974 172.511 19.8494C172.455 19.7014 172.374 19.54 172.331 19.4907C172.288 19.4414 172.22 19.308 172.178 19.1943C172.137 19.0807 172.051 18.9327 171.987 18.8655C171.923 18.7983 171.771 18.5955 171.649 18.4147C171.42 18.0757 170.708 17.399 170.579 17.3985C170.539 17.3983 170.47 17.3579 170.426 17.3087C170.382 17.2594 170.2 17.1792 170.022 17.1302C169.844 17.0813 169.661 17.0123 169.615 16.9768C169.568 16.9413 169.231 16.8844 168.864 16.8503C168.056 16.7752 166.516 16.871 166.215 17.0152C166.109 17.066 165.845 17.1338 165.629 17.166C165.414 17.1982 165.112 17.277 164.96 17.3412C164.808 17.4054 164.554 17.4579 164.396 17.4579C164.092 17.4579 164.03 17.4017 164.03 17.1285C164.03 17.0513 163.979 16.9416 163.917 16.8847C163.855 16.8277 163.756 16.6577 163.698 16.5067C163.639 16.3558 163.515 16.044 163.42 15.8138C163.145 15.1408 162.825 14.1877 162.648 13.512C162.358 12.4014 162.002 10.4745 162.037 10.1998C162.069 9.95468 162.284 9.83529 163.029 9.65124C163.659 9.49543 164.028 9.41569 165.354 9.14975C165.71 9.07848 166.146 8.98252 166.324 8.9365C166.501 8.89049 166.981 8.8142 167.39 8.76697C167.798 8.71974 168.22 8.64813 168.326 8.60784C168.454 8.55948 169.091 8.5247 170.2 8.50554C171.821 8.47752 171.913 8.48219 172.849 8.63987C173.382 8.72971 173.917 8.84065 174.037 8.8864C174.158 8.93214 174.434 9.01196 174.65 9.06376C175.053 9.16051 176.336 9.72529 176.617 9.92975C176.704 9.9928 176.804 10.0444 176.84 10.0444C176.876 10.0444 177.028 10.137 177.177 10.2502C177.326 10.3635 177.591 10.5565 177.765 10.6792C178.154 10.9532 179.277 11.9893 179.277 12.0741C179.277 12.108 179.471 12.3516 179.709 12.6154C180.147 13.1017 180.359 13.3881 180.535 13.7321C180.588 13.8368 180.659 13.938 180.693 13.9572C180.726 13.9763 180.788 14.0925 180.831 14.2153C180.873 14.3382 180.959 14.4925 181.022 14.5583C181.085 14.6241 181.158 14.7451 181.184 14.8273C181.211 14.9095 181.287 15.041 181.353 15.1194C181.42 15.1978 181.474 15.322 181.474 15.3953C181.474 15.4686 181.529 15.5932 181.596 15.6722C181.663 15.7511 181.748 15.9094 181.785 16.024C181.859 16.2545 182.197 17.0162 182.304 17.1946C182.341 17.2572 182.415 17.443 182.467 17.6074C182.52 17.7718 182.695 18.2367 182.858 18.6405C183.02 19.0443 183.154 19.421 183.154 19.4775C183.154 19.5341 183.199 19.6605 183.255 19.7585C183.31 19.8565 183.386 20.0717 183.424 20.2368C183.461 20.4019 183.548 20.6378 183.615 20.761C183.682 20.8842 183.755 21.1129 183.778 21.2692C183.8 21.4255 183.868 21.6475 183.93 21.7626C183.992 21.8777 184.077 22.1261 184.119 22.3146C184.161 22.5031 184.221 22.6717 184.252 22.6893C184.282 22.7069 184.342 22.8744 184.384 23.0616C184.426 23.2488 184.499 23.4568 184.546 23.5239C184.593 23.591 184.66 23.8073 184.695 24.0046C184.729 24.2019 184.804 24.444 184.86 24.5427C184.916 24.6413 184.962 24.7624 184.962 24.8117C184.962 24.9077 185.153 25.4921 185.713 27.1135C186.067 28.1343 186.589 29.4254 186.876 29.9841C186.961 30.149 187.03 30.3048 187.03 30.3303C187.03 30.3558 187.084 30.4496 187.15 30.5387C187.217 30.6278 187.361 30.8352 187.471 30.9996C187.767 31.4417 188.185 31.95 188.531 32.2883C188.7 32.4528 188.883 32.6685 188.938 32.7676C188.993 32.8668 189.114 32.9742 189.205 33.0064C189.297 33.0386 189.535 33.1787 189.735 33.3177C190.078 33.5556 190.244 33.66 190.874 34.0308C191.416 34.3501 192.513 34.7423 193.264 34.8852C193.478 34.9258 193.768 34.9877 193.91 35.0228C194.053 35.0579 194.397 35.1054 194.677 35.1284C195.339 35.1828 195.561 35.3426 195.684 35.8546C195.73 36.0452 195.822 36.3593 195.889 36.5526C196.047 37.0126 196.043 37.0691 195.832 37.2651C195.563 37.5157 194.326 38.4431 194.261 38.4431C194.23 38.4431 194.156 38.5305 194.097 38.6374C194.038 38.7443 193.87 38.9644 193.724 39.1267C193.296 39.6015 192.78 40.2608 192.78 40.3319C192.78 40.368 192.724 40.444 192.656 40.5009C192.589 40.5577 192.514 40.6762 192.49 40.7642C192.467 40.8522 192.399 40.9915 192.34 41.0737C192.132 41.3604 191.918 41.9314 191.589 43.0766C191.376 43.8179 191.396 46.2835 191.621 47.0039C191.655 47.1128 191.727 47.4574 191.781 47.7698C191.835 48.0822 191.936 48.5665 192.007 48.846C192.077 49.1255 192.222 49.7308 192.328 50.1912C192.54 51.1102 192.789 52.0982 192.982 52.7919C193.051 53.0385 193.132 53.3885 193.164 53.5697C193.195 53.7509 193.281 54.0662 193.355 54.2703C193.43 54.4745 193.49 54.7189 193.49 54.8134C193.49 54.9079 193.546 55.1353 193.614 55.3185C193.682 55.5018 193.757 55.8087 193.78 56.0005C193.803 56.1923 193.877 56.5241 193.944 56.7378C194.084 57.1812 194.296 58.3001 194.431 59.3087C194.481 59.6868 194.559 60.1442 194.604 60.325C194.66 60.553 194.685 61.2497 194.685 62.5969C194.685 64.4399 194.678 64.563 194.54 64.9872C194.46 65.2332 194.394 65.5156 194.393 65.615C194.392 65.7143 194.334 65.9031 194.266 66.0347C194.197 66.1662 194.14 66.3169 194.139 66.3695C194.137 66.4222 194.069 66.5836 193.986 66.7282C193.903 66.8729 193.814 67.0698 193.788 67.1659C193.762 67.2619 193.684 67.4068 193.616 67.4878C193.547 67.5688 193.49 67.6817 193.49 67.7386C193.49 67.7955 193.431 67.9117 193.359 67.9968C193.287 68.0819 193.195 68.2402 193.154 68.3486C193.114 68.457 193.021 68.6037 192.947 68.6745C192.873 68.7453 192.698 68.9545 192.558 69.1393C192.409 69.3372 192.24 69.4904 192.148 69.5119C192.052 69.5341 191.957 69.6235 191.904 69.7405C191.818 69.9298 191.028 70.7278 190.926 70.728C190.897 70.728 190.787 70.7985 190.68 70.8846C190.573 70.9707 190.37 71.1119 190.228 71.1984C190.086 71.2849 189.94 71.3777 189.905 71.4047C189.699 71.5607 188.696 72.0857 187.999 72.4016C187.555 72.603 187.09 72.8166 186.965 72.8763C186.841 72.936 186.637 73.0046 186.513 73.0287C186.389 73.0528 186.185 73.1222 186.061 73.1827C185.721 73.3484 185.034 73.584 184.682 73.6562C184.51 73.6914 184.03 73.8239 183.616 73.9507C183.202 74.0775 182.746 74.2004 182.604 74.2238C182.462 74.2472 182.142 74.3277 181.894 74.4027C181.264 74.5926 180.955 74.6303 180.769 74.5399Z" fill="white"/>
</svg>
