<svg width="43" height="39" viewBox="0 0 43 39" fill="none" xmlns="http://www.w3.org/2000/svg">
<path d="M29.5625 6.0625H34.9375C36.424 6.0625 37.625 7.26348 37.625 8.75V30.25C37.625 31.7365 36.424 32.9375 34.9375 32.9375H29.5625C28.076 32.9375 26.875 34.1385 26.875 35.625C26.875 37.1115 28.076 38.3125 29.5625 38.3125H34.9375C39.3887 38.3125 43 34.7012 43 30.25V8.75C43 4.29883 39.3887 0.6875 34.9375 0.6875H29.5625C28.076 0.6875 26.875 1.88848 26.875 3.375C26.875 4.86152 28.076 6.0625 29.5625 6.0625ZM28.9326 20.9613C29.3357 20.5834 29.5625 20.0543 29.5625 19.5C29.5625 18.9457 29.3357 18.4166 28.9326 18.0387L16.8389 6.6168C16.251 6.0625 15.3943 5.91133 14.6553 6.23047C13.9162 6.54961 13.4375 7.28027 13.4375 8.07812V14.125H2.6875C1.20098 14.125 0 15.326 0 16.8125V22.1875C0 23.674 1.20098 24.875 2.6875 24.875H13.4375V30.9219C13.4375 31.7281 13.9162 32.4504 14.6553 32.7695C15.3943 33.0887 16.251 32.9375 16.8389 32.3832L28.9326 20.9613Z" fill="white"/>
</svg>
